# xmcd
# Copyright (C) 1995-1998 Ti Kan
#
# Track frame offsets:
#       150
#       20880
#       50175
#       76190
#       102792
#       119142
#       136075
#       152892
#       170372
#       190475
#       217415
#       247390
#       273975
#
# Disc length: 3872 seconds
#
# Revision: 0
# Processed by: cddbd v1.5.2PL0 Copyright (c) Steve Scherf et al.
# Submitted via: CD-Import v1.0
#
DISCID=cc0f1e0d
DTITLE=Various Artist - Fatboy Slim - Norman Cook Collection
DYEAR=2000
DGENRE=
TTITLE0=Beats International - Won't Talk About It
TTITLE1=Pierre Henry - Psyche Rock
TTITLE2=Deeds+thoughts - The World Is Made Up Of This and That
TTITLE3=Beats International - Echo Chamber
TTITLE4=Beats International - Dub Be Good To Me
TTITLE5=Jean Jacques Perrey - E.v.a.
TTITLE6=A Trible Called Quest - I Left My Wallet In El Segundo
TTITLE7=Beats International - The Sun Doesn't Shine
TTITLE8=Shinehead - Start An Avalanche
TTITLE9=Wildchild - Renegade Master
TTITLE10=Lunatic Calm - Roll The Dice
TTITLE11=James Brown - Payback
TTITLE12=Beats International - Tribute To King Tubby
EXTD=
EXTT0=
EXTT1=
EXTT2=
EXTT3=
EXTT4=
EXTT5=
EXTT6=
EXTT7=
EXTT8=
EXTT9=
EXTT10=
EXTT11=
EXTT12=
PLAYORDER=
